/* XPM */
static char *bitcoin16[] = {
/* columns rows colors chars-per-pixel */
"16 16 113 2 ",
"   c None",
".  c #253491",
"X  c #283692",
"o  c #283793",
"O  c #2A3692",
"+  c #2B3792",
"@  c #2D3792",
"#  c #283893",
"$  c #293893",
"%  c #2A3893",
"&  c #2C3893",
"*  c #2D3893",
"=  c #2C3993",
"-  c #2E3993",
";  c #2B3A94",
":  c #2F3994",
">  c #2E3B94",
",  c #333893",
"<  c #343993",
"1  c #363993",
"2  c #373994",
"3  c #353A94",
"4  c #353B94",
"5  c #373A94",
"6  c #3A3994",
"7  c #383B94",
"8  c #393B95",
"9  c #393C95",
"0  c #3A3D95",
"q  c #3D3C95",
"w  c #3D3D95",
"e  c #403B94",
"r  c #403C95",
"t  c #413C95",
"y  c #413D95",
"u  c #423C95",
"i  c #423D95",
"p  c #413D96",
"a  c #433D96",
"s  c #423E96",
"d  c #433E96",
"f  c #464197",
"g  c #474298",
"h  c #484399",
"j  c #49459A",
"k  c #4A459A",
"l  c #4C479B",
"z  c #474A9C",
"x  c #4F4A9C",
"c  c #5551A0",
"v  c #5256A3",
"b  c #5A55A3",
"n  c #565AA5",
"m  c #5C58A4",
"M  c #5C59A5",
"N  c #5E5AA5",
"B  c #5F5BA6",
"V  c #635FA8",
"C  c #6864AB",
"Z  c #6D6AAE",
"A  c #6E6FB1",
"S  c #6A74B3",
"D  c #7773B3",
"F  c #7A76B5",
"G  c #7B77B5",
"H  c #7E7BB7",
"J  c #7F7CB7",
"K  c #817DB8",
"L  c #837FB9",
"P  c #8783BC",
"I  c #8885BD",
"U  c #8D8ABF",
"Y  c #878DC1",
"T  c #8F8CC0",
"R  c #A19FCB",
"E  c #A3A0CB",
"W  c #A4A1CC",
"Q  c #A6A4CD",
"!  c #A7A4CE",
"~  c #A8A5CE",
"^  c #AAA7CF",
"/  c #B1AFD3",
"(  c #B4B2D5",
")  c #BFBDDB",
"_  c #C8C6E0",
"`  c #C9C8E1",
"'  c #CBC9E2",
"]  c #CDCCE3",
"[  c #CFCEE4",
"{  c #D9D8EA",
"}  c #DBDAEB",
"|  c #DDDCEC",
" . c #E2E1EF",
".. c #E4E4F0",
"X. c #E7E7F2",
"o. c #E9E8F2",
"O. c #E9E8F3",
"+. c #EAE9F3",
"@. c #EBEAF4",
"#. c #ECEBF4",
"$. c #ECECF5",
"%. c #EFEEF6",
"&. c #F1F0F7",
"*. c #F1F1F7",
"=. c #F2F2F8",
"-. c #F8F8FB",
";. c #FAFAFC",
":. c #FBFBFD",
">. c #FCFCFD",
",. c #FCFCFE",
"<. c #FEFDFE",
"1. c #FEFEFE",
"2. c #FFFFFF",
/* pixels */
"          . . o $ $ #           ",
"      # ; S Y z 7 4 : % $       ",
"    $ + v X.2.P e d s 9 = $     ",
"  $ = 6 J ,.>.L e e t d w = $   ",
"  % 9 u ! 2.1.} / I V f a 9 %   ",
"# : p k ] 2.2.2.2.2.%.~ l y : # ",
"$ 4 u N @.2.] )  .-.2.<.T t 4 $ ",
"$ 9 e H >.:.G d c D | 2.` h 8 $ ",
"$ 9 u Q 2.O.m t i e ( 2.{ x 7 $ ",
"$ 3 k ] 2.' g e t g _ 2.[ k 3 # ",
"# * M @.2...R F b H =.2.~ r : # ",
"  X n +.2.2.2.;.o.*.2.$.C 5 %   ",
"  # > A ^ [ #.,.2.2.&.U q = $   ",
"    # O 5 j B K W E Z 0 & $     ",
"      $ % - < 1 2 , @ % $       ",
"          # # $ $ # #           "
};
