/* XPM */
static char *bitcoin64[] = {
/* columns rows colors chars-per-pixel */
"64 64 237 2 ",
"   c None",
".  c #273692",
"X  c #273792",
"o  c #283792",
"O  c #283793",
"+  c #293893",
"@  c #2A3893",
"#  c #2B3893",
"$  c #2B3993",
"%  c #2C3993",
"&  c #2D3993",
"*  c #2F3893",
"=  c #2F3994",
"-  c #303A94",
";  c #313A94",
":  c #333A94",
">  c #343A94",
",  c #343B94",
"<  c #363B94",
"1  c #363B95",
"2  c #373B95",
"3  c #383B95",
"4  c #393B95",
"5  c #3C3B94",
"6  c #3F3A94",
"7  c #3E3B95",
"8  c #383C95",
"9  c #393C95",
"0  c #383D95",
"q  c #3A3C95",
"w  c #3D3D95",
"e  c #3E3C95",
"r  c #3E3D95",
"t  c #3F3D95",
"y  c #3F3D96",
"u  c #403B94",
"i  c #413B94",
"p  c #403B95",
"a  c #413B95",
"s  c #413C95",
"d  c #403D95",
"f  c #423C95",
"g  c #423D95",
"h  c #403D96",
"j  c #413D96",
"k  c #423D96",
"l  c #433D96",
"z  c #413E96",
"x  c #423E96",
"c  c #433E96",
"v  c #443F96",
"b  c #443F97",
"n  c #354097",
"m  c #3D4B9D",
"M  c #454097",
"N  c #484399",
"B  c #484499",
"V  c #494499",
"C  c #4B469A",
"Z  c #4B469B",
"A  c #4C479B",
"S  c #414F9F",
"D  c #4D489C",
"F  c #4E499C",
"G  c #4F4A9D",
"H  c #504B9D",
"J  c #504C9D",
"K  c #514C9E",
"L  c #524D9E",
"P  c #524E9F",
"I  c #534E9F",
"U  c #534F9F",
"Y  c #544F9F",
"T  c #4551A0",
"R  c #4854A2",
"E  c #4F5BA6",
"W  c #5450A0",
"Q  c #5651A0",
"!  c #5A55A3",
"~  c #5A56A3",
"^  c #5B56A3",
"/  c #5B57A3",
"(  c #5C57A4",
")  c #5C58A4",
"_  c #5D59A5",
"`  c #5E5AA5",
"'  c #5F5AA5",
"]  c #5F5BA6",
"[  c #605CA6",
"{  c #615CA6",
"}  c #615CA7",
"|  c #615DA7",
" . c #635FA8",
".. c #6662AA",
"X. c #6762AA",
"o. c #6763AA",
"O. c #6864AB",
"+. c #6965AB",
"@. c #6A66AC",
"#. c #6E6AAE",
"$. c #6F6BAE",
"%. c #6F6CAF",
"&. c #706CAF",
"*. c #716DB0",
"=. c #736FB0",
"-. c #7672B2",
";. c #7A76B4",
":. c #7A76B5",
">. c #7A77B5",
",. c #7B77B5",
"<. c #7B78B5",
"1. c #7C78B6",
"2. c #7C79B6",
"3. c #7D79B6",
"4. c #7D7AB7",
"5. c #7E7AB7",
"6. c #817EB9",
"7. c #827EB9",
"8. c #827FB9",
"9. c #837FBA",
"0. c #8380BA",
"q. c #8683BB",
"w. c #8885BD",
"e. c #8B87BE",
"r. c #8C89BF",
"t. c #8E8BC0",
"y. c #8F8CC0",
"u. c #908DC1",
"i. c #918EC1",
"p. c #928FC2",
"a. c #9390C3",
"s. c #9491C3",
"d. c #9592C3",
"f. c #9592C4",
"g. c #9693C4",
"h. c #9895C5",
"j. c #9A97C6",
"k. c #9C9AC8",
"l. c #9E9BC9",
"z. c #9F9DC9",
"x. c #A09DCA",
"c. c #A19FCB",
"v. c #A29FCB",
"b. c #9EA4CE",
"n. c #A2A0CB",
"m. c #A3A0CB",
"M. c #A3A0CC",
"N. c #A3A1CC",
"B. c #A4A1CC",
"V. c #A4A2CC",
"C. c #AAA7CF",
"Z. c #AAA8D0",
"A. c #ABA8D0",
"S. c #ABA9D0",
"D. c #ACA9D0",
"F. c #ADADD3",
"G. c #AFACD2",
"H. c #B6B4D6",
"J. c #B7B5D7",
"K. c #B9B7D8",
"L. c #BBB9D9",
"P. c #BBBAD9",
"I. c #BCBAD9",
"U. c #BCBADA",
"Y. c #BDBBDA",
"T. c #BEBCDA",
"R. c #BEBCDB",
"E. c #BEBDDB",
"W. c #C0BEDC",
"Q. c #C0BFDC",
"!. c #C1BFDC",
"~. c #C2C0DD",
"^. c #C3C1DD",
"/. c #C8C6E0",
"(. c #C9C7E1",
"). c #C9C8E1",
"_. c #C9C9E1",
"`. c #CAC8E1",
"'. c #CAC9E1",
"]. c #CBC9E2",
"[. c #CBCAE2",
"{. c #CDCBE3",
"}. c #CACDE4",
"|. c #D0CEE5",
" X c #D0CFE5",
".X c #D1CFE5",
"XX c #D1D0E5",
"oX c #D2D1E6",
"OX c #D3D1E6",
"+X c #D8D7E9",
"@X c #D9D8EA",
"#X c #DAD8EA",
"$X c #DBD9EB",
"%X c #DBDAEB",
"&X c #DEDDEC",
"*X c #DFDEED",
"=X c #DDDFEE",
"-X c #E0DFEE",
";X c #E1E0EE",
":X c #E2E1EF",
">X c #E3E2EF",
",X c #E7E6F1",
"<X c #E8E7F2",
"1X c #E8E8F2",
"2X c #E9E8F2",
"3X c #E9E8F3",
"4X c #E9E9F3",
"5X c #EAE9F3",
"6X c #EAEAF3",
"7X c #EBEAF4",
"8X c #EAEBF4",
"9X c #ECEBF4",
"0X c #EDECF5",
"qX c #EDEDF5",
"wX c #EFEEF6",
"eX c #EFF0F7",
"rX c #F1F0F7",
"tX c #F2F2F8",
"yX c #F3F3F8",
"uX c #F3F3F9",
"iX c #F5F5F9",
"pX c #F5F5FA",
"aX c #F6F5FA",
"sX c #F6F6FA",
"dX c #F7F7FB",
"fX c #F8F7FB",
"gX c #F8F8FB",
"hX c #FAFAFC",
"jX c #FBFAFC",
"kX c #FBFAFD",
"lX c #FBFBFD",
"zX c #FCFCFD",
"xX c #FCFCFE",
"cX c #FDFCFE",
"vX c #FDFDFE",
"bX c #FEFEFE",
"nX c #FFFFFF",
/* pixels */
"                                                    + + + + + + + + + + + +                                                     ",
"                                            + + + + + + + + + + + + + + + + + + + +                                             ",
"                                        + + + + + + + + + + + + + + + + + + + + + + + +                                         ",
"                                    + + + + + + + + + + + + + + + + + + + + + + + + + + + +                                     ",
"                                + + + + + + + o . . O + + + + + + + + + + + + + + + + + + + + +                                 ",
"                            + + + + + + + X + m E R n * > 2 9 q q 9 2 , ; & @ + + + + + + + + + + +                             ",
"                          + + + + + + + . S b.=XeX8X_.2.M c c c c c c c x z w 3 ; $ + + + + + + + + +                           ",
"                      + + + + + + + + X T }.nXnXnXnXnXiXy.c c c c c c c c c c c x r 1 & + + + + + + + + +                       ",
"                    + + + + + + + + % 0 F.nXnXnXnXnXnXnX9X..s c c c c c c c c c c c c h 2 % + + + + + + + +                     ",
"                  + + + + + + + @ : 7 ( 1XnXnXnXnXnXnXnXnXz.s c c c c c c c c c c c c c c y : @ + + + + + + +                   ",
"                + + + + + + + % q x u 3.lXnXnXnXnXnXnXnXnXU.v c c c c c c c c c c c c c c c x q % + + + + + + +                 ",
"              + + + + + + + = r c c s V.nXnXnXnXnXnXnXnXnXH.c c c c c c c c c c c c c c c c c c r = + + + + + + +               ",
"              + + + + + + ; h c c l V [.nXnXnXnXnXnXnXnXnXs.u c c c c c c c c c c c c c c c c c c h ; + + + + + +               ",
"            + + + + + + ; j c c c f ) 5XnXnXnXnXnXnXnXnXpX#.p c c c c c c c c c c c c c c c c c c c h - + + + + + +             ",
"          + + + + + + = h c c c c u 1.lXnXnXnXnXnXnXnXnX*XI g c c c c c c c c c c c c c c c c c c c c h = + + + + + +           ",
"          + + + + + % r c c c c c s B.nXnXnXnXnXnXnXnXnXY.l u f l c c c c c c c c c c c c c c c c c c c r % + + + + +           ",
"        + + + + + @ q c c c c c l V ].nXnXnXnXnXnXnXnXnX;Xm.<.( B s u f l c c c c c c c c c c c c c c c c q @ + + + + +         ",
"        + + + + + : x c c c c c f ) 4XnXnXnXnXnXnXnXnXnXnXnXkX3X].N.1.) B s u f l c c c c c c c c c c c c x : + + + + +         ",
"      + + + + + % y c c c c c c u 1.lXnXnXnXnXnXnXnXnXnXnXnXnXnXnXnXlX4X].B.1.) V s p k c c c c c c c c c c t % + + + + +       ",
"      + + + + + 2 c c c c c c c s B.nXnXnXnXnXnXnXnXnXnXnXnXnXnXnXnXnXnXnXnXlX4X[.B.-.F s k c c c c c c c c c 2 + + + + +       ",
"    + + + + + & h c c c c c c l B ].nXnXnXnXnXnXnXnXnXnXnXnXnXnXnXnXnXnXnXnXnXnXnXnXgXOXw.C s c c c c c c c c h & + + + + +     ",
"    + + + + + 1 c c c c c c c f ( 3XnXnXnXnXnXnXnXnXnXnXnXnXnXnXnXnXnXnXnXnXnXnXnXnXnXnXlXW.' s c c c c c c c c < + + + + +     ",
"  + + + + + $ r c c c c c c c u <.kXnXnXnXnXnXnXnXnXnXnXnXnXnXnXnXnXnXnXnXnXnXnXnXnXnXnXnXnX#XO.s c c c c c c c r # + + + + +   ",
"  + + + + + ; x c c c c c c c s M.nXnXnXnXnXnXnXnXnXnXnXnXnXnXnXnXnXnXnXnXnXnXnXnXnXnXnXnXnXnX@X` s c c c c c c x ; + + + + +   ",
"  + + + + + 3 c c c c c c c l N '.nXnXnXnXnXnXnXnXnXnXnXnXnXnXnXnXnXnXnXnXnXnXnXnXnXnXnXnXnXnXnXW.Z k c c c c c c 3 + + + + +   ",
"  + + + + @ w c c c c c c c f ( 2XnXnXnXnXnXnXnXnXlX,XpXnXnXnXnXnXnXnXnXnXnXnXnXnXnXnXnXnXnXnXnXzXe.s c c c c c c w @ + + + +   ",
"+ + + + + & z c c c c c c c u ,.kXnXnXnXnXnXnXnXnX-X .#.d.Y.*XaXnXnXnXnXnXnXnXnXnXnXnXnXnXnXnXnXnX+XL g c c c c c j & + + + + + ",
"+ + + + + ; x c c c c c c c s m.nXnXnXnXnXnXnXnXnXT.v p u M U $.d.Y.*XaXnXnXnXnXnXnXnXnXnXnXnXnXnXzX0.u c c c c c x ; + + + + + ",
"+ + + + + , c c c c c c c l N `.nXnXnXnXnXnXnXnXnXf.u c c c g p u M I #.s.U.*XgXnXnXnXnXnXnXnXnXnXnXI.M c c c c c c , + + + + + ",
"+ + + + + 2 c c c c c c c f / 1XnXnXnXnXnXnXnXnXsX%.p c c c c c c c g p u b P >.%XnXnXnXnXnXnXnXnXnX>XQ g c c c c c 2 + + + + + ",
"+ + + + + 8 c c c c c c c u ,.jXnXnXnXnXnXnXnXnX-XY g c c c c c c c c c c c g 6 =.tXnXnXnXnXnXnXnXnXsX#.p c c c c c 8 + + + + + ",
"+ + + + + q c c c c c c c s n.nXnXnXnXnXnXnXnXnXR.M c c c c c c c c c c c c c l N /.nXnXnXnXnXnXnXnXbXq.u c c c c c 9 + + + + + ",
"+ + + + + q c c c c c c l N `.nXnXnXnXnXnXnXnXnXg.u c c c c c c c c c c c c c c s V.nXnXnXnXnXnXnXnXnXh.u c c c c c 9 + + + + + ",
"+ + + + + 9 c c c c c c f ^ <XnXnXnXnXnXnXnXnXsX&.p c c c c c c c c c c c c c c u p.nXnXnXnXnXnXnXnXnXv.p c c c c c 8 + + + + + ",
"+ + + + + 2 c c c c c c u >.jXnXnXnXnXnXnXnXnX-XY g c c c c c c c c c c c c c c u u.nXnXnXnXnXnXnXnXnXN.a c c c c c 2 + + + + + ",
"+ + + + + , c c c c c c s v.nXnXnXnXnXnXnXnXnXE.M c c c c c c c c c c c c c c c u j.nXnXnXnXnXnXnXnXnXl.u c c c c c , + + + + + ",
"+ + + + + ; x c c c c l N ).nXnXnXnXnXnXnXnXnXg.u c c c c c c c c c c c c c c c g G.nXnXnXnXnXnXnXnXnXi.u c c c c x ; + + + + + ",
"+ + + + + & z c c c c f ^ <XnXnXnXnXnXnXnXnXsX&.p c c c c c c c c c c c c c c l V {.nXnXnXnXnXnXnXnXzX4.u c c c c j & + + + + + ",
"  + + + + @ w c c c c u :.hXnXnXnXnXnXnXnXnX;XW g c c c c c c c c c c c c c c s [ 9XnXnXnXnXnXnXnXnXtXo.s c c c c w @ + + + +   ",
"  + + + + + 3 c c c c s c.nXnXnXnXnXnXnXnXnXE.M c c c c c c c c c c c c c c c u i.nXnXnXnXnXnXnXnXnX&XL g c c c c 2 + + + + +   ",
"  + + + + + ; x c c l N (.nXnXnXnXnXnXnXnXnXk.s u s k c c c c c c c c c c c k G oXnXnXnXnXnXnXnXnXnXL.b c c c c x ; + + + + +   ",
"  + + + + + # r c c f ~ <XnXnXnXnXnXnXnXnXnX>XH.t.+.H c u s k c c c c c c c s y.zXnXnXnXnXnXnXnXnXbXr.u c c c c r # + + + +     ",
"    + + + + + < c c u ;.hXnXnXnXnXnXnXnXnXnXnXnXnXyX$XJ.t.@.J c u s k c c u @.,XnXnXnXnXnXnXnXnXnX6X] s c c c c < + + + + +     ",
"    + + + + + & h c s x.nXnXnXnXnXnXnXnXnXnXnXnXnXnXnXnXnXyX%XJ.t.@.J v M &.$XnXnXnXnXnXnXnXnXnXnXK.M c c c c h & + + + + +     ",
"      + + + + + 2 c l H.nXnXnXnXnXnXnXnXnXnXnXnXnXnXnXnXnXnXnXnXnXuX%XP.Q.wXnXnXnXnXnXnXnXnXnXnXsX-.p c c c c 2 + + + + +       ",
"      + + + + + % t f S.nXnXnXnXnXnXnXnXnXnXnXnXnXnXnXnXnXnXnXnXnXnXnXnXnXnXnXnXnXnXnXnXnXnXnXnX~.V l c c c t % + + + + +       ",
"        + + + + + : u 5.jXnXnXnXnXnXnXnXnXnXnXnXnXnXnXnXnXnXnXnXnXnXnXnXnXnXnXnXnXnXnXnXnXnXnXrX&.s c c c x : + + + + +         ",
"        + + + + + @ 4 A !.nXnXnXnXnXnXnXnXnXnXnXnXnXnXnXnXnXnXnXnXnXnXnXnXnXnXnXnXnXnXnXnXnXnXB.v c c c c q @ + + + + +         ",
"          + + + + + % 5 ! W.hXnXnXnXnXnXnXnXnXnXnXnXnXnXnXnXnXnXnXnXnXnXnXnXnXnXnXnXnXnXnXnX(.K g c c c w % + + + + +           ",
"          + + + + + + = e A <.D.XXqXvXnXnXnXnXnXnXnXnXnXnXnXnXnXnXnXnXnXnXnXnXnXnXnXnXnXnX#X{ s c c c h = + + + + + +           ",
"            + + + + + + - d i f Z | 9.S.XXqXcXnXnXnXnXnXnXnXnXnXnXnXnXnXnXnXnXnXnXnXnXnX+XX.s c c c h - + + + + + +             ",
"              + + + + + + - h c l s u f Z } 8.A..X0XcXnXnXnXnXnXnXnXnXnXnXnXnXnXnXnXvX^.` s c c c h - + + + + + +               ",
"              + + + + + + + = r c c c c l s u f C { 7.Z. X0XxXnXnXnXnXnXnXnXnXnXnX:Xs.D s c c c w = + + + + + + +               ",
"                + + + + + + + % q x c c c c c c l s u f C [ 6.C.|.7XfXzXzXdX5X'.a.! f k c c x 9 % + + + + + + +                 ",
"                  + + + + + + + @ : y c c c c c c c c c l s u f C _ *.1.1.&.) V p f c c c t : @ + + + + + + +                   ",
"                    + + + + + + + + % 2 h c c c c c c c c c c c l f p u u p f l c c c h 1 % + + + + + + + +                     ",
"                      + + + + + + + + + & < r x c c c c c c c c c c c c c c c c x r < & + + + + + + + +                         ",
"                          + + + + + + + + + # ; 2 w j x c c c c c c c c x j w 2 - # + + + + + + + + +                           ",
"                            + + + + + + + + + + + @ & ; , 1 8 9 9 8 2 , ; & @ + + + + + + + + + + +                             ",
"                                + + + + + + + + + + + + + + + + + + + + + + + + + + + + + + + +                                 ",
"                                    + + + + + + + + + + + + + + + + + + + + + + + + + + + +                                     ",
"                                        + + + + + + + + + + + + + + + + + + + + + + + +                                         ",
"                                              + + + + + + + + + + + + + + + + + +                                               ",
"                                                    + + + + + + + + + + + +                                                     "
};
