/* XPM */
static char *bitcoin32[] = {
/* columns rows colors chars-per-pixel */
"32 32 177 2 ",
"   c None",
".  c #273692",
"X  c #283792",
"o  c #283793",
"O  c #2B3793",
"+  c #293893",
"@  c #2A3893",
"#  c #2B3893",
"$  c #2C3893",
"%  c #2D3993",
"&  c #2F3893",
"*  c #2D3994",
"=  c #2E3994",
"-  c #2F3994",
";  c #313893",
":  c #353893",
">  c #313994",
",  c #303A94",
"<  c #313A94",
"1  c #323A94",
"2  c #333A94",
"3  c #373B95",
"4  c #3E3993",
"5  c #3C3A94",
"6  c #3C3B95",
"7  c #3F3A94",
"8  c #3E3B94",
"9  c #3F3B95",
"0  c #383C95",
"q  c #393C95",
"w  c #3D3D95",
"e  c #3E3C95",
"r  c #3F3C95",
"t  c #3F3D95",
"y  c #3F3D96",
"u  c #403B94",
"i  c #413B94",
"p  c #403B95",
"a  c #413B95",
"s  c #403C95",
"d  c #413C95",
"f  c #423D95",
"g  c #413D96",
"h  c #423D96",
"j  c #433D96",
"k  c #413E96",
"l  c #423E96",
"z  c #433E96",
"x  c #443F96",
"c  c #443F97",
"v  c #354198",
"b  c #38469B",
"n  c #454097",
"m  c #444197",
"M  c #464197",
"N  c #464198",
"B  c #474298",
"V  c #494499",
"C  c #4B469A",
"Z  c #4C479B",
"A  c #484B9D",
"S  c #504B9D",
"D  c #504C9D",
"F  c #504C9E",
"G  c #524D9E",
"H  c #4653A2",
"J  c #5450A0",
"K  c #5550A0",
"L  c #5551A0",
"P  c #5652A1",
"I  c #5753A1",
"U  c #5853A1",
"Y  c #5B56A3",
"T  c #5958A4",
"R  c #5D58A4",
"E  c #5F5BA6",
"W  c #615CA7",
"Q  c #625EA7",
"!  c #635FA8",
"~  c #6460A8",
"^  c #6662AA",
"/  c #6762AA",
"(  c #6863AA",
")  c #6965AB",
"_  c #6A66AC",
"`  c #6C68AD",
"'  c #716DAF",
"]  c #6F6DB0",
"[  c #716DB0",
"{  c #716EB0",
"}  c #726EB0",
"|  c #736EB0",
" . c #6670B1",
".. c #7470B1",
"X. c #7571B2",
"o. c #7773B3",
"O. c #7B77B5",
"+. c #7C79B6",
"@. c #7E7BB7",
"#. c #7F7BB7",
"$. c #8481BA",
"%. c #8784BC",
"&. c #8D8AC0",
"*. c #8F8CC0",
"=. c #918EC2",
"-. c #9491C3",
";. c #9794C5",
":. c #9795C5",
">. c #9895C5",
",. c #9895C6",
"<. c #9B98C7",
"1. c #9C99C7",
"2. c #9E9BC9",
"3. c #A09ECA",
"4. c #A29FCB",
"5. c #A2A0CB",
"6. c #A3A0CB",
"7. c #A5A2CD",
"8. c #A7A4CE",
"9. c #AAA7CF",
"0. c #ACAAD1",
"q. c #ADAAD1",
"w. c #AFADD2",
"e. c #B4B1D5",
"r. c #B6B4D6",
"t. c #B9B7D8",
"y. c #B9B8D8",
"u. c #BAB8D8",
"i. c #BDBBDA",
"p. c #BFBDDB",
"a. c #BFBEDB",
"s. c #C0BEDC",
"d. c #C1BFDC",
"f. c #C3C2DE",
"g. c #C3C3DE",
"h. c #C4C2DE",
"j. c #C5C3DE",
"k. c #C7C5E0",
"l. c #C9C7E1",
"z. c #CCCAE2",
"x. c #D2D1E6",
"c. c #D3D1E6",
"v. c #D1D4E8",
"b. c #D8D9EA",
"n. c #DAD9EA",
"m. c #DBDBEB",
"M. c #DDDCEC",
"N. c #DEDDEC",
"B. c #DEDDED",
"V. c #E1E0EE",
"C. c #E2E1EF",
"Z. c #E3E2EF",
"A. c #E4E3F0",
"S. c #E5E4F0",
"D. c #E5E5F1",
"F. c #E7E7F2",
"G. c #EAE9F3",
"H. c #EAEAF3",
"J. c #E9EBF4",
"K. c #EEEDF5",
"L. c #EEEEF6",
"P. c #EFEEF6",
"I. c #EFEFF6",
"U. c #F2F2F8",
"Y. c #F3F2F8",
"T. c #F4F4F9",
"R. c #F7F6FA",
"E. c #F7F7FA",
"W. c #F7F7FB",
"Q. c #F8F8FB",
"!. c #F9F9FC",
"~. c #FAFAFC",
"^. c #FBFBFD",
"/. c #FCFCFD",
"(. c #FDFDFE",
"). c #FEFEFE",
"_. c #FFFFFF",
/* pixels */
"                        + + + + + + + +                         ",
"                  + + X . o + + + + + + + + +                   ",
"              + + + X b H v & 1 1 , * # + + + + +               ",
"            + + + X  .v.J.g.E f z l g w 3 - + + + +             ",
"          + + + $ A b._._._.r.n z z z z z k q % + + +           ",
"        + + + < 5 | Q._._._.c.C j z z z z z z y < + + +         ",
"      + + + 2 k i ,._._._._.t.c z z z z z z z z k 2 + + +       ",
"    + + + < k z M d._._._._.-.7 u d j z z z z z z k < + + +     ",
"    + + % y z f L C._._._._.m.0.$.Q Z f u d z z z z y % + +     ",
"  + + + q z z p } W._._._._._._.(.L.x.q.$.R z f z z z q + + +   ",
"  + + - k z z p >._._._._._._._._._._._.(.F.5.F f z z k - + +   ",
"  + + 3 z z z M s._._._._._._._._._._._._._._.p.D f z z 3 + +   ",
"+ + # w z z f K C._._._./.P.^._._._._._._._._._.6.z z z w # + + ",
"+ + * g z z p { W._._._.B._ +.7.z.G.^._._._._._.H.W d z g * + + ",
"+ + , l z z u :._._._._.y.h u d V R +.9.I._._._._.=.u z l , + + ",
"+ + 1 z z z n s._._._._.=.u z z j d u d 3._._._._.r.z z z 1 + + ",
"+ + 1 z z f K V._._._.T.` a z z z z z u o.~._._._.k.N z z 1 + + ",
"+ + , l z p [ E._._._.M.G f z z z z z u ..!._._._.l.B z l , + + ",
"+ + * g z u ;._._._._.u.c z z z z z z u %.)._._._.i.c z g * + + ",
"+ + # w z n a._._._._.*.4 h z z z z z z e._._._._.4.d z w @ + + ",
"  + + 3 f K V._._._./.8.( S z u d h u ~ G._._._.~.O.u z 3 + +   ",
"  + + - 8 ' R._._._._.).Y.n.r.&.) S Y j._._._._.N.J f k - + +   ",
"  + + + : #.(._._._._._._._._._.Y.m.Z._._._._._.2.f z q + + +   ",
"    + + O T C._._._._._._._._._._._._._._._._.n.I f y % + +     ",
"    + + + > ] d.S.Q._._._._._._._._._._._._.K.o.d k < + + +     ",
"      + + + ; m U X.1.h.A.Q._._._._._._._.D.@.j k 2 + + +       ",
"        + + + < e i a N I X.<.f.Z.U.U.C.w.! f t < + + +         ",
"          + + + % q k z f p p N P / ^ L x r 0 % + + +           ",
"            + + + + - 3 w g l l f s 9 6 3 - + + + +             ",
"              + + + + + @ * , 1 1 , * @ + + + + +               ",
"                  + + + + + + + + + + + + + +                   ",
"                        + + + + + + + +                         "
};
