/* XPM */
static char *bitcoin128[] = {
/* columns rows colors chars-per-pixel */
"128 128 73 1 ",
"  c None",
". c #263692",
"X c #2A3792",
"o c #293893",
"O c #323A94",
"+ c #3B3C95",
"@ c #433E96",
"# c #3A489C",
"$ c #454097",
"% c #474298",
"& c #494499",
"* c #4E499C",
"= c #514D9E",
"- c #544FA0",
"; c #4551A1",
": c #5652A1",
"> c #5955A2",
", c #5D59A5",
"< c #615CA6",
"1 c #635FA8",
"2 c #5964AB",
"3 c #6661A9",
"4 c #6A66AC",
"5 c #616CAF",
"6 c #6D69AD",
"7 c #716DAF",
"8 c #646FB1",
"9 c #726EB0",
"0 c #6E76B5",
"q c #7672B2",
"w c #7975B4",
"e c #7D79B6",
"r c #827EB9",
"t c #7C85BD",
"y c #8682BB",
"u c #8A86BD",
"i c #8D89BF",
"p c #8F8BC0",
"a c #918EC1",
"s c #9592C4",
"d c #9996C6",
"f c #9B98C7",
"g c #9E9BC9",
"h c #A09ECA",
"j c #A5A2CC",
"k c #ABA9D0",
"l c #B1AED3",
"z c #B6B3D6",
"x c #B8B6D7",
"c c #B9B7D8",
"v c #BCBAD9",
"b c #C5C3DE",
"n c #C6C5E0",
"m c #C8C6E0",
"M c #CBCAE2",
"N c #D0CEE4",
"B c #CFD2E7",
"V c #D2D1E6",
"C c #D6D5E8",
"Z c #D8D6E9",
"A c #DCDBEC",
"S c #E0DFEE",
"D c #E1E0EE",
"F c #E5E5F1",
"G c #E8E7F2",
"H c #E7E8F3",
"J c #EBEBF4",
"K c #F0EFF6",
"L c #EFF0F7",
"P c #F1F0F7",
"I c #F5F4F9",
"U c #F8F7FB",
"Y c #FFFFFF",
/* pixels */
"                                                        oooooooooooooooo                                                        ",
"                                                   oooooooooooooooooooooooooo                                                   ",
"                                               oooooooooooooooooooooooooooooooooo                                               ",
"                                           oooooooooooooooooooooooooooooooooooooooooo                                           ",
"                                         oooooooooooooooooooooooooooooooooooooooooooooo                                         ",
"                                      oooooooooooooooooooooooooooooooooooooooooooooooooooo                                      ",
"                                    oooooooooooooooooooooooooooooooooooooooooooooooooooooooo                                    ",
"                                  ooooooooooooooooooooooooooooooo.oooooooooooooooooooooooooooo                                  ",
"                                oooooooooooooooooooooooooooooooooooooooooooooooooooooooooooooooo                                ",
"                               oooooooooooooooooooo.ooooooooooooooooooooooooooooooooooooooooooooo                               ",
"                             ooooooooooooooooooo....ooo.oooOOOOOOOOoOoooooooooooooooooooooooooooooo                             ",
"                            oooooooooooooooooXo;252;OoO+@+@@@@@@@@@@@@++OOOooooooooooooooooooooooooo                            ",
"                          ooooooooooooooooo.#tnHIYIFni=@@@@@@@@@$@@@@$@@@@@@@+Oooooooooooooooooooooooo                          ",
"                         oooooooooooooooooo8BYYYYYYYYYVq@@@@@@@@@@@@@@@@@@@@@@@@+Oooooooooooooooooooooo                         ",
"                        ooooooooooooooooo.tJYYYYYYYYYYYJy@@@@@@@@@@@@@@@$@@@@@@@@@++Oooooooooooooooooooo                        ",
"                      oooooooooooooooooo.0IYYYYYYYYYYYYYPw@@@@@@$@@@@@@@@@@@@@@@@@@@@+Oooooooooooooooooooo                      ",
"                     oooooooooooooooooXO:AYYYYYYYYYYYYYYYZ=@@@@@@@$@@@@@@@@@@@@@@@@@@@@@Ooooooooooo.ooooooo                     ",
"                    oooooooooooooooooO+@fYYYYYYYYYYYYYYYYYf@@@@@@@@@@@@@@@@$@@$@@@@@@@@@$+Oooooooooooooooooo                    ",
"                   ooooooooooo.oooXo+@@=AYYYYYYYYYYYYYYYYYV=@@@@@@@@@$@@@@@@@@@@@@@$@@@@@@@+ooooooooooooooooo                   ",
"                  ooooooooooooooooO@@@@6IYYYYYYYYYYYYYYYYYP3@@@@@@@@@@@@@@@@@@@@@@@@@@@@@@@@@Ooooooooooooooooo                  ",
"                 oooooooooooooooX+@@@@+sYYYYYYYYYYYYYYYYYYYe@@@@@@@@@@@@@@@$@@@@@@@@@@@@@@@@@@+oooooooooooooooo                 ",
"                oooooooooooooooO@@@@@@@vYYYYYYYYYYYYYYYYYYYi@@@@$@@@@@@@@@@@@@@@@@@@@$@@@@@@@@$@oooooooooooooooo                ",
"               oooooooooooooooO@@@@@@@=SYYYYYYYYYYYYYYYYYYYy+@@@@@@@@@@@@@@@@@@@@@@@@@@@@$@@@@@@@Oooooooooooooooo               ",
"               oooooooooooooo+@@@@@@@@6IYYYYYYYYYYYYYYYYYYI7@@@@@@@@@$@@@@@$@@$@@@$@@@@@@@@@@@@@@$+oooooooooooooo               ",
"              oooooooooooooo+@@@@@@@@@sYYYYYYYYYYYYYYYYYYYF:@@@@@@@@@@@@@@@$@@@@$@@@@@$@@@@@@@@@@@@+oooooooooooooo              ",
"             oooooooooooooO+@@@@@@@@@@vYYYYYYYYYYYYYYYYYYYb@@@@@@@@@@@@@@@@@@@@@@@@@@@@@@@@@@$@@@@@@@oooooooooooooo             ",
"            oooooooooooooo+@@@@@@@@@@=AYYYYYYYYYYYYYYYYYYYf+@@@@@@@$$@@@@@@@@@$@@@@@@@@@@@@@@@@@@@$@@+oooooooooooooo            ",
"           oooooooooooooo+$@@@$@@@@@@6IYYYYYYYYYYYYYYYYYYI9@@@@@@@@@@@@@@@@@@@@@$@@@@@@@@@$@@@@@@@@@@@@ooooooooooooo            ",
"           ooooooooooooo+$@@@@@@@@@@@aYYYYYYYYYYYYYYYYYYYD>@@@@@@@@@@@@@@@@@@@@@@@$@@@@@@@@@@@@@@@@@@@$+ooooooooooooo           ",
"          ooooooooooooo+@@@@@@@@@@@@@vYYYYYYYYYYYYYYYYYYYb$@@@@@@@@@@@@@@@@@$@@@@@@@@@$@@@@@@@@@@@@$@@@@+ooooooooooooo          ",
"          oooooooooooo+@@@@@@@@@@@@@=AYYYYYYYYYYYYYYYYYYYf@@@@@@@@$@@$@@$@@@@@@@@@@@@@@@@@@@@@@@@@@@@@@@@Ooooooooooooo          ",
"         ooooooooooooO@@@@@@@@@$@@@@6IYYYYYYYYYYYYYYYYYYI7+@@@@@@@@@@@@@@@@@@@@@@@@@@@@@@@@$@@$@@@@@@@@@@@ooooooooooooo         ",
"        ooooooooooooO@@@@@@@@@@@@@$@aYYYYYYYYYYYYYYYYYYYIf6=@+@@@@@@@@@@@@@@@@@@@@@@@@@@@@@@@@@@@@@@@@@@@@@ooooooooooooo        ",
"        oooooooooooo+@@@@@@@@@@@@@@@vYYYYYYYYYYYYYYYYYYYYYIAva4=@@+@@@@@@@@@@@@@@@@@@@@@@@@@@@@@$@@@@$@@@@@+oooooooooooo        ",
"       ooooooooooooO@@@@@@$@@@@@@@@=AYYYYYYYYYYYYYYYYYYYYYYYYYIAxa6=@@@@@@@@@@@@@@@@@@@@@@@@@@@@@@@@@@@@@$@@Ooooooooooooo       ",
"       oooooooooooo@@@@@@@@@$@@@@@@4IYYYYYYYYYYYYYYYYYYYYYYYYYYYYYIAca6=@@@@@@@@@@@@@@@@@$@@$@@$@@@@@@@@@@@@@oooooooooooo       ",
"      oooooooooooo+@@@@@@@@@@@@@@@@aYYYYYYYYYYYYYYYYYYYYYYYYYYYYYYYYYYIAca6=$@+@@@@@@@@@@@@@@@@@@@@@$@@@@@@@@+oooooooooooo      ",
"      oooooooooooO@@@@@%@@@@@@@@@@@vYYYYYYYYYYYYYYYYYYYYYYYYYYYYYYYYYYYYYYIAva4=@@@@@@@@@@@@@@@@@@@@@@@@@$@@@@Oooooooooooo      ",
"     oooooooooooo+@@@@@@@$@@@@@@@@=AYYYYYYYYYYYYYYYYYYYYYYYYYYYYYYYYYYYYYYYYYYIAva4=@+@@@$@@@@@@@@@@@@@@@@@@@@+oooooooooooo     ",
"     oooooooooo.+@@@@@@@@@@@@$@@@@4IYYYYYYYYYYYYYYYYYYYYYYYYYYYYYYYYYYYYYYYYYYYYYYISxe=@@@@@@@@@@$@@$@@@@@@@@@@Oooooooooooo     ",
"     ooooooooooo@@@@@@@@@@@@@@@@@@aYYYYYYYYYYYYYYYYYYYYYYYYYYYYYYYYYYYYYYYYYYYYYYYYYYYZf>@@@@@@@@@@@@@@@@@@@@@@@ooooooooooo     ",
"    oooooooooooO@@@@@@@@@@@@@@@@@@vYYYYYYYYYYYYYYYYYYYYYYYYYYYYYYYYYYYYYYYYYYYYYYYYYYYYYSa&@@@@@@@@@@@$@@@@@@@@@Oooooooooooo    ",
"    ooooooooooo+@@%@@@@@@@@@@@@@@=AYYYYYYYYYYYYYYYYYYYYYYYYYYYYYYYYYYYYYYYYYYYYYYYYYYYYYYYm4@@@@@$@@@@@@@@@@@@@@+ooooooooooo    ",
"   oooooooooooo@@@@@@@@@@@@@@@@@@4IYYYYYYYYYYYYYYYYYYYYYYYYYYYYYYYYYYYYYYYYYYYYYYYYYYYYYYYYJu@@@@@@@@@@@@$@@@@@@@ooo.oooooooo   ",
"   ooooooooooo+$@@@@@@@@@@@@@@@@+aYYYYYYYYYYYYYYYYYYYYYYYYYYYYYYYYYYYYYYYYYYYYYYYYYYYYYYYYYYYf&@@@@@@@@@@@@@@@@@$+ooooooooooo   ",
"   ooooooooooo@@@@@@@%@@@@@@@@@@@xYYYYYYYYYYYYYYYYYYYYYYYYYYYYYYYYYYYYYYYYYYYYYYYYYYYYYYYYYYYYj&@@@@@@@@@@@@@@@@@@ooooooooooo   ",
"   ooooooooooO@@@@@@@@@@@@@@@@@@=AYYYYYYYYYYYYYYYYYYYYYYYYYYYYYYYYYYYYYYYYYYYYYYYYYYYYYYYYYYYYYf$@@@@@@@@@@$@@@@@@Ooooooooooo   ",
"  ooooooooooo+@@@@@@@@@@@@@@@@@@4IYYYYYYYYYYYYYYYYYYYYYYYYYYYYYYYYYYYYYYYYYYYYYYYYYYYYYYYYYYYYYIu@@@@@@@@@@@@@@%@@+ooooooooooo  ",
"  ooooooooooo@@@@@@@@@@@@@@@@@@@aYYYYYYYYYYYYYYYYYYYYYYYYYYYYYYYYYYYYYYYYYYYYYYYYYYYYYYYYYYYYYYYJ4+@@@@@@@@@@@@@@@@ooooooooooo  ",
"  ooooooooooO@@@@@@@@@@@@@@@@@@@cYYYYYYYYYYYYYYYYYYYYYYYYYYYYYYYYYYYYYYYYYYYYYYYYYYYYYYYYYYYYYYYYb*@@@@@@@@@@@@@@@@Ooooooooooo  ",
"  ooooooooooO@@$@@@@@@@$@@@@@@@=AYYYYYYYYYYYYYYYYYYYYYYYYYYYYYYYYYYYYYYYYYYYYYYYYYYYYYYYYYYYYYYYYYf@@@@@@@@@@@@@@@@Ooooooooooo  ",
" ooooooooooo+$@@@@@$@@@@@@@@@@@4IYYYYYYYYYYYYYYYYYYYVSYYYYYYYYYYYYYYYYYYYYYYYYYYYYYYYYYYYYYYYYYYYYD,@@@@@$@@$@@$@@$+ooooooooooo ",
" ooooooooooo@@@@@@@@@@@@@@@@@@+aYYYYYYYYYYYYYYYYYYYF,:qfbDYYYYYYYYYYYYYYYYYYYYYYYYYYYYYYYYYYYYYYYYYj@@@@@@@@@@@@@@@@ooooooooooo ",
" ooooooooooO@@@@@@$@@@@@@@@@@@@xYYYYYYYYYYYYYYYYYYYb%@+@@>9hbDYYYYYYYYYYYYYYYYYYYYYYYYYYYYYYYYYYYYYF>@@@@@@@@@@@@@@@Ooooooooooo ",
" ooooooooooO@@$@@@@@@@$@@@@@@@=AYYYYYYYYYYYYYYYYYYYf@@@@@@+@%:9fbFYYYYYYYYYYYYYYYYYYYYYYYYYYYYYYYYYYs@@@@$@@@@@$@@@@Ooooooooooo ",
" oooooooooo+@@@@@@@@@@@@@@@@@@4IYYYYYYYYYYYYYYYYYYY9@@@@@@@@@@@@%:9fbFYYYYYYYYYYYYYYYYYYYYYYYYYYYYYYV*@@@@@@@@@@@@$@+oooooooooo ",
"ooooooooooo+@@@@@@@@@@@@@@@@@@pYYYYYYYYYYYYYYYYYYYF>@@@@@@@@%@@@@@@@$-qfbFIYYYYYYYYYYYYYYYYYYYYYYYYYI6@@@@@@@@@@@@$@+ooooooooooo",
"ooooooooooo+@@@@@@@$@@@@$@@@@@xYYYYYYYYYYYYYYYYYYYb%@@@@@@@@@@@@@@@@@@@@$:7fbDYYYYYYYYYYYYYYYYYYYYYYYh@@@@@@@$@@@@@@@ooooooooooo",
"ooooooooooo@@@@@@@@@@@$@@@@@@*AYYYYYYYYYYYYYYYYYYYf@@@@@@@@@@@@@@@@@@@@@@@+@%=qvYYYYYYYYYYYYYYYYYYYYYM&@@@@@@@@@@@@@@ooooooooooo",
"ooooooooooO@@$@@@@@@@@@@@@@@@4IYYYYYYYYYYYYYYYYYYYq@@@@@@@@@@@@@@@@@@@@@@@@@@@@%sYYYYYYYYYYYYYYYYYYYYJ>@@$@@@@@@@@@@$ooooooooooo",
"ooooooooooO@@@@@@@@@@@@@$@@@@iYYYYYYYYYYYYYYYYYYYF>@@@@@@@@@%@@@@@@@@@$@@@@@@@@@@xYYYYYYYYYYYYYYYYYYYYq+@@@@@@@@@@@$@ooooooooooo",
"oooooo.oooO@@@@@@@@@$@@@@@@@@xYYYYYYYYYYYYYYYYYYYb%@@@@@@@@@@@@@@@@@@@@@@@@@@@@@@<JYYYYYYYYYYYYYYYYYYYf@@@@@@@@$@@@@@Ooooooooooo",
"ooooooooooo@@@@@$@@@@@@@@@@@=AYYYYYYYYYYYYYYYYYYYf@@@@@@@@@@@@@@@@@@@@@@@$@@@@@@@@xYYYYYYYYYYYYYYYYYYYl@@@@@@@@@@@@@@Oooooooo.oo",
"ooooooooooO@$@@@@@@@@@@@@@@@4IYYYYYYYYYYYYYYYYYYYq+@@@@@@@@@@@@@@@@@@@@@@@@@@@@@@@yYYYYYYYYYYYYYYYYYYYb@@@$@@@@@@@@@@ooooooooooo",
"ooooooooooO@@@@@@@@@@@@@@@@+pYYYYYYYYYYYYYYYYYYYG>@@@@@@@@@@@@@%@@@@@@@@@@@@@@@@@@3IYYYYYYYYYYYYYYYYYYZ*@@@@@@@@@@@@@Ooooooooooo",
"ooooooooooO@@@@$@@@@@@@@@@@@xYYYYYYYYYYYYYYYYYYYb&@@@@@@@@@@@@@@@@@@@@$@@@@$@@@@@@-DYYYYYYYYYYYYYYYYYYD=@@@@@@@@@@@@@Ooooooooooo",
"ooooooooooO$@@@@@@@@@@@@@@@*AYYYYYYYYYYYYYYYYYYYh@@%@@@@@@@@@@@@@@@@@@@@@@@@@@@@@@*ZYYYYYYYYYYYYYYYYYYG>@@@@@@@@@@@@@ooooooooooo",
"ooooooooooo@@@@@@@@@@@@@@@@4IYYYYYYYYYYYYYYYYYYY9@@@@@@@@@@@@@@@@@@@@@@@@@@@@@$@@@&VYYYYYYYYYYYYYYYYYYJ,@@@@@@@@@@@@@Ooooooooooo",
"ooooooooooo@@@@@@@@@@@@@@@@iYYYYYYYYYYYYYYYYYYYF>@@@%@@@%@@@@@@@@@@@@@$@@$@@@@@@@@&MYYYYYYYYYYYYYYYYYYJ,@@@@@@@$@@@@@Ooooooooooo",
"ooooooooooo@@@@@@@@@@@@@@@@xYYYYYYYYYYYYYYYYYYYb%@@@@@@@@@@@@@@@@@@@@@@@@@@@@@@@@@&NYYYYYYYYYYYYYYYYYYJ,@@@@@@@@@@@@@ooooooooooo",
"ooooooooooo@$@@@@@@@@@@@@@=ZYYYYYYYYYYYYYYYYYYYh@@@@@@@@@@@@@@@@@@@@@@@@@@@@@@@@@@*ZYYYYYYYYYYYYYYYYYYF>@@@@@@@@@@@@+ooooooooooo",
"ooooooooooo+@@@@@@@@@@@@@@4IYYYYYYYYYYYYYYYYYYYw@@@@@@@@@@@@@@@@@@@@@@@@@@@@@@@$@@:FYYYYYYYYYYYYYYYYYYD=@$@@@@@@@@@@+ooooooooooo",
" oooooooooo+@@@@%@@@@@@@@@uYYYYYYYYYYYYYYYYYYYG>@@@@@@@@@@@@@@@@@@@@@@@@@@@@@@@@@@<KYYYYYYYYYYYYYYYYYYZ*@@@@@@@@@@@@Ooooooooooo ",
" ooooooooooO@@@@@@@@@@@@@@xYYYYYYYYYYYYYYYYYYYb&@@@@@@@@@@@@@@@@@@@@@@@@@@@@@@$@@+wYYYYYYYYYYYYYYYYYYYM%@@@@@@@@@@@@O.ooooooooo ",
" ooooooooooO@@@@@@@@@@@@@=AYYYYYYYYYYYYYYYYYYYf+@@@@@@@@@@@%@@@%@@@@@@@@@@$@@@@@@@sYYYYYYYYYYYYYYYYYYYx@@@@@$@@@@@@@Ooooooooooo ",
" ooooooooooo@@@@@@@@@@@%+4IYYYYYYYYYYYYYYYYYYYw@@@@@@@@@@@@@@@@@@@@@@%@@@@@@@@@@@%vYYYYYYYYYYYYYYYYYYYf@@@@@@@@@$@$@ooooooooooo ",
" ooooooooooo@@@@@@@@@@@@+uYYYYYYYYYYYYYYYYYYYG>@@@@@@@@@@@@@@@@@@@@@@@@$@@@@@@@@@=DYYYYYYYYYYYYYYYYYYYr+@@@@@@@@@@@+ooooooooooo ",
"  oooooooooo+%@@@@@@@@@@@xYYYYYYYYYYYYYYYYYYYb@@@@@@@@@@@@@@@@@@@@@@@@@@@@@@@@@$+wYYYYYYYYYYYYYYYYYYYI4@@@@@@@@@@@@+oooooooooo  ",
"  ooooooooooO@@@@@@@@@@@*AYYYYYYYYYYYYYYYYYYYh@@@@@@@@@@@@@@@@@@@@%@@@@@@@@@@@@@@xYYYYYYYYYYYYYYYYYYYS=@@@@@@$@@@@@Ooooooooooo  ",
"  oooooooooXX@@@@@@@@@@@4IYYYYYYYYYYYYYYYYYYYw@@@@@@@@@@@@@@@@@@@@@@@@@$@@@@@@@@>FYYYYYYYYYYYYYYYYYYYb%@@@@@@@@@@@@ooooooooooo  ",
"  ooooooooooo+@@@@@@@@@@uYYYYYYYYYYYYYYYYYYYF>@@@@@@@@@@@@@@@@@@@@@@@@@@@@@@@@@@sYYYYYYYYYYYYYYYYYYYYf@@@@@@@@@@@@+ooooooooooo  ",
"   ooooooooo.O@@@@@@@@@@xYYYYYYYYYYYYYYYYYYYM&+@@@@@@@@@@@@@@@@@@@@@@%@@@@@@@@@=AYYYYYYYYYYYYYYYYYYYI7+@@@@@@@@@@@Ooooooooooo   ",
"   ooooooooooo+$@@@@@@@=AYYYYYYYYYYYYYYYYYYYJxi4=@+@@@@@@@@@@@@@@@@@@@@@@@@@@@@fYYYYYYYYYYYYYYYYYYYYA=@@@@@@@@@@@+ooooooooooo   ",
"   ooooooooooo+@@@@@@@@4PYYYYYYYYYYYYYYYYYYYYYYIAxi4=@@@@@@@@@@@@@@@@@@@@@@@@@<GYYYYYYYYYYYYYYYYYYYYl@@@$@@$@@$@$+ooooooooooo   ",
"   oooooooooooO@@@@@@@@uYYYYYYYYYYYYYYYYYYYYYYYYYYYIAcp4=@+@@@@@@@@@@@@@@@@@@&bYYYYYYYYYYYYYYYYYYYYYw@@@@@@@@@@@@oooooooooooo   ",
"    ooooooooooo+@@@@@@@xYYYYYYYYYYYYYYYYYYYYYYYYYYYYYYYIZxa4=@+@@@@@@@@@@@@@%jYYYYYYYYYYYYYYYYYYYYYZ=@@@@@@@@@@@+ooooooooooo    ",
"    oooooooooooO@@@@@@=ZYYYYYYYYYYYYYYYYYYYYYYYYYYYYYYYYYYYIAca4=@@@@@@@@@@%fYYYYYYYYYYYYYYYYYYYYYYh@@@@$@@@@@@@Oooooooooooo    ",
"     ooooooooooo+@@@@@<KYYYYYYYYYYYYYYYYYYYYYYYYYYYYYYYYYYYYYYYIAxa4=@@@+@:kYYYYYYYYYYYYYYYYYYYYYYP3@@@@@@@@@@$+ooooooooooo     ",
"     oooooooooooO@@@@@wYYYYYYYYYYYYYYYYYYYYYYYYYYYYYYYYYYYYYYYYYYYYIAva9wfSYYYYYYYYYYYYYYYYYYYYYYYc$@@@@@@@@@@$Oooooooooooo     ",
"     oooooooooooo+@@@@eYYYYYYYYYYYYYYYYYYYYYYYYYYYYYYYYYYYYYYYYYYYYYYYYYYYYYYYYYYYYYYYYYYYYYYYYYYI9@@@@@$@@@@@+oooooooooooo     ",
"      oooooooooooO@@@+7IYYYYYYYYYYYYYYYYYYYYYYYYYYYYYYYYYYYYYYYYYYYYYYYYYYYYYYYYYYYYYYYYYYYYYYYYYv&@@@@@@@@@@@oooooooooooo      ",
"      oooooooooooo+@@@<GYYYYYYYYYYYYYYYYYYYYYYYYYYYYYYYYYYYYYYYYYYYYYYYYYYYYYYYYYYYYYYYYYYYYYYYYI7@@@@@@@@@@@+oooooooooooo      ",
"       oooooooooooo@@@&MYYYYYYYYYYYYYYYYYYYYYYYYYYYYYYYYYYYYYYYYYYYYYYYYYYYYYYYYYYYYYYYYYYYYYYYYx$@@@@@@$@@@@o.oooooooooo       ",
"       ooooooooooooO@@@uYYYYYYYYYYYYYYYYYYYYYYYYYYYYYYYYYYYYYYYYYYYYYYYYYYYYYYYYYYYYYYYYYYYYYYYF,@@@@@@@@@@@Ooooooooooooo       ",
"        o.oooooooooo+@@*MYYYYYYYYYYYYYYYYYYYYYYYYYYYYYYYYYYYYYYYYYYYYYYYYYYYYYYYYYYYYYYYYYYYYYYp+@@@@@@@@@@+oooooooooooo        ",
"        oooooooooooXo+@@7JYYYYYYYYYYYYYYYYYYYYYYYYYYYYYYYYYYYYYYYYYYYYYYYYYYYYYYYYYYYYYYYYYYYYv&@@@@@$@@@@@ooooooooooooo        ",
"         ooooooooooooO@@@eJYYYYYYYYYYYYYYYYYYYYYYYYYYYYYYYYYYYYYYYYYYYYYYYYYYYYYYYYYYYYYYYYYYA,@@@@@@@@@@@Ooooooooooooo         ",
"          ooooooooooooO@@@6MYYYYYYYYYYYYYYYYYYYYYYYYYYYYYYYYYYYYYYYYYYYYYYYYYYYYYYYYYYYYYYYYPq@@@@@@@@@@@Ooooooooooooo          ",
"          oooooooooooooO@@@&ybGYYYYYYYYYYYYYYYYYYYYYYYYYYYYYYYYYYYYYYYYYYYYYYYYYYYYYYYYYYYYYa@@@@@@@@@@@+ooooooooooooo          ",
"           ooooooooooooo+@@@@%>qhmGIYYYYYYYYYYYYYYYYYYYYYYYYYYYYYYYYYYYYYYYYYYYYYYYYYYYYYYYf$@@@@@@@@@@+o.ooooooooooo           ",
"            ooooooooooooo+@@@@@+@$>whmFYYYYYYYYYYYYYYYYYYYYYYYYYYYYYYYYYYYYYYYYYYYYYYYYYYYf&@@@@@@@@@@+ooooooooooooo            ",
"            oooooooooooooo+@@@@@@@@@@$>whmDYYYYYYYYYYYYYYYYYYYYYYYYYYYYYYYYYYYYYYYYYYYYYIf%@$@@@@@@@@@oooooooooooooo            ",
"             oooooooooooooo@@@@@@@@@@@@@@%>whnGYYYYYYYYYYYYYYYYYYYYYYYYYYYYYYYYYYYYYYYYJu@@@@@@@@@@@@oooooooooooooo             ",
"              ooooooooooooXX+@@@@@@@@@@@@@@+@$>whnFYYYYYYYYYYYYYYYYYYYYYYYYYYYYYYYYYYYV6@@@@@@@@@@@+oooooooooooooo              ",
"               oooooooooooooo+@@@@@@@@@@@@@@@@@@@$>whbGIYYYYYYYYYYYYYYYYYYYYYYYYYYYYKj=@@@@@@@@@@@+oooooooooooooo               ",
"               ooooooooooooooo+@@@$@@@@$@@@@@@@@@@@+@%>whbDYYYYYYYYYYYYYYYYYYYYYYYIv6@@@@@@@@@@@@Oooooooooooooooo               ",
"                ooooooooooooo.oO@@@@@@@@@@@@@@@@@@@@@@@@@@>qfbDYYYYYYYYYYYYYYYYYJx9$@@@@$@@@@@@@Oooooooooooooooo                ",
"                 oooooooooooooooo+@@@@@@@@@@@@@@@@@@@@@@@@@@@@>qfnFIYYYYYYYYIDvp,@@@@@@@@@@@$@+oooooooooooooooo                 ",
"                  ooooooooooooooooO@@@@@@@@@@@@@@@@@@@@@@@@@@@@@@&=4yfhkkjsr6=@@@@@@@@@@@@@@+Ooooooooooooooooo                  ",
"                   ooooooooooooooooo+@@$@@@@$@@@@@@@@@@@@@@@@@@@@@@@+@@@@@@+@@@@@@@@@@@@@@@+ooooooooooooooooo                   ",
"                    oooooooooooooooooO+@@@$@@@@@@@@@@@@@@@@@@@@@@@@@@@@@@@@@@@@@@@@@@@@@$+Oooooooooooooooooo                    ",
"                     ooooooooooooooooooO+@@@@@@@@@@@@@@@@@@@@@@@@@@@@@@@@@@@@@@@@@@@@@@+Ooooooooooooooooooo                     ",
"                      oooooooooooooooooooo+@@@@@@@$@@@@@@@@@@@@@@@@@@@@@@@@@@@@$@@@@@+Oooooooooooooooooooo                      ",
"                        oooooooooooooooooooO++@@@@@@@$@@@@$@@$@@@@@@@@@@@$@@@@@@@@++oooooooooooooooooooo                        ",
"                         oooooooooooooooooooooO++@@@@@@@@@@@@@@@@@@@@@@@@@@@@@@@+Oooooooooooooooooooooo                         ",
"                          oooooooooooooooooooooooO+++@@@@@@@@@@@@@@@@@$@@@@@++Oooooooooooooooooooooooo                          ",
"                            ooooooooooooooooooooooooOOO++@+@@@@@@@@@@++++OOooooooooooooooooooooooooo                            ",
"                             oooooooooooooooooooooooooooooooooOOOOOoOoooooooooooooo.ooooooooooooooo                             ",
"                               oooooooooooooooooooooooooooooooooXoooooooooooooooooooooooooooooooo                               ",
"                                ooooooooooooooooooooooooooooooooXXoooooooooooooooooooooooooooooo                                ",
"                                  oooooooooooooooooooooooooooooooooooooooooooooooooooooooooooo                                  ",
"                                    oooooooooooooooooooooooooooooooooooooooooooooooooooooooo                                    ",
"                                      oooooooooooooooooooooooooooooooooooooooooooooooooooo                                      ",
"                                         oooooooooooooooooooooooo.ooooooooooooooooooooo                                         ",
"                                           oooooooooooooooooooooooooooooooooooooooooo                                           ",
"                                               oooooooooooooooooooooooooooooooooo                                               ",
"                                                   oooooooooooooooooooooooooo                                                   ",
"                                                        oooooooooooooooo                                                        "
};
