<svg id="レイヤー_1" data-name="レイヤー 1" xmlns="http://www.w3.org/2000/svg" viewBox="0 0 192.92 192.92"><defs><style>.cls-1{fill:#433e96;stroke:#2e3893;stroke-miterlimit:10;stroke-width:16px;}.cls-2{fill:#fff;}</style></defs><title>bellcoin</title><circle class="cls-1" cx="96.46" cy="96.46" r="88.44"/><path class="cls-2" d="M300.5,466.69l-53.6-13.37A14.92,14.92,0,0,1,236,435.22L261.49,333.1a14.93,14.93,0,1,1,29,7.22L287.3,353l39.12,9.76c23.81,5.93,35.65,32.1,28.14,62.21-3.12,12.53-9.24,23.64-17.24,31.29C326.83,466.28,313.76,470,300.5,466.69ZM268.61,428l39.12,9.75c1.37.34,4.58,1.15,8.95-3,3.91-3.75,7.16-9.92,8.91-16.94,2.22-8.89,2.44-23.82-6.4-26L280.08,382Z" transform="translate(-201.41 -304.11)"/></svg>
